{
  "accessors": [
    {
      "bufferView": 0,
      "componentType": 5126,
      "count": 1085345,
      "max": [
        12.846248626708984,
        19.43597412109375,
        2.242703437805176
      ],
      "min": [
        -15.625293731689453,
        -11.46277904510498,
        -0.13536453247070313
      ],
      "type": "VEC3"
    },
    {
      "bufferView": 0,
      "byteOffset": 12,
      "componentType": 5126,
      "count": 1085345,
      "type": "VEC3"
    },
    {
      "bufferView": 0,
      "byteOffset": 24,
      "componentType": 5126,
      "count": 1085345,
      "type": "VEC2"
    },
    {
      "bufferView": 0,
      "byteOffset": 32,
      "componentType": 5126,
      "count": 1085345,
      "type": "VEC2"
    },
    {
      "bufferView": 1,
      "componentType": 5125,
      "count": 4500030,
      "type": "SCALAR"
    }
  ],
  "asset": {
    "version": "2.0"
  },
  "bufferViews": [
    {
      "buffer": 0,
      "byteLength": 43413800,
      "byteStride": 40,
      "target": 34962
    },
    {
      "buffer": 0,
      "byteLength": 18000120,
      "byteOffset": 43413800,
      "target": 34963
    }
  ],
  "buffers": [
    {
      "byteLength": 61413920,
      "uri": "Bugae.bin"
    }
  ],
  "images": [
    {
      "uri": "M_Bugaebasecolortexture.jpeg"
    }
  ],
  "materials": [
    {
      "name": "M_Bugae",
      "pbrMetallicRoughness": {
        "baseColorTexture": {
          "index": 0,
          "texCoord": 1
        },
        "metallicFactor": 0.0,
        "roughnessFactor": 0.0
      }
    }
  ],
  "meshes": [
    {
      "name": "Bugae_UE_Model_2",
      "primitives": [
        {
          "attributes": {
            "NORMAL": 1,
            "POSITION": 0,
            "TEXCOORD_0": 2,
            "TEXCOORD_1": 3
          },
          "indices": 4,
          "material": 0,
          "mode": 4
        }
      ]
    }
  ],
  "nodes": [
    {
      "matrix": [
        0.001,
        0.0,
        0.0,
        0.0,
        0.0,
        0.001,
        0.0,
        0.0,
        0.0,
        0.0,
        0.001,
        0.0,
        0.0,
        0.0,
        0.0,
        1.0
      ],
      "mesh": 0,
      "name": "Bugae_UE_Model_2"
    },
    {
      "children": [
        0
      ],
      "matrix": [
        -4.371138857095504e-05,
        0.0,
        1000.0,
        0.0,
        1000.0,
        6.123233701766512e-14,
        4.371138857095504e-05,
        0.0,
        -6.123233701766512e-14,
        1000.0,
        -2.6765504748620262e-21,
        0.0,
        0.0,
        0.0,
        0.0,
        1.0
      ]
    }
  ],
  "samplers": [
    {
      "magFilter": 9729,
      "minFilter": 9729,
      "wrapS": 10497,
      "wrapT": 10497
    }
  ],
  "scenes": [
    {
      "nodes": [
        1
      ]
    }
  ],
  "textures": [
    {
      "name": "texture_source0_sampler0",
      "sampler": 0,
      "source": 0
    }
  ]
}
